<svg width="277" height="331" viewBox="0 0 277 331" fill="none" xmlns="http://www.w3.org/2000/svg">
<path fill-rule="evenodd" clip-rule="evenodd" d="M59.367 139.676C61.0038 141.023 62.2836 142.466 63.2933 143.854L65.9248 140.343C64.677 139.019 63.461 137.814 62.007 136.673L59.367 139.676Z" fill="#3E1A0B"/>
<path fill-rule="evenodd" clip-rule="evenodd" d="M67.9001 145.808C66.4205 143.143 63.1171 142.243 60.4834 143.841L56.9931 146.052C54.3594 147.651 53.522 151.192 54.8826 153.889C56.3621 156.554 59.6655 157.454 62.2992 155.856L65.7895 153.645C68.4232 152.046 69.4115 148.592 67.9001 145.808Z" fill="#F69E9F"/>
<path fill-rule="evenodd" clip-rule="evenodd" d="M209.099 34.245L147.271 44.4338L143.978 24.5241C143.65 22.826 142.045 21.5978 140.196 21.8382L91.1859 29.868C89.4875 30.1955 88.2589 31.8003 88.4992 33.6493L91.7926 53.559L33.5125 63.1798C32.0522 63.4436 30.9107 64.8974 31.1744 66.3575L71.0656 309.512C71.3292 310.972 72.7833 312.113 74.2436 311.849L249.862 283.033C251.322 282.77 252.464 281.316 252.2 279.856L212.19 36.7334C212.132 35.0905 210.591 34.1003 209.099 34.245Z" fill="url(#paint0_linear)"/>
<path fill-rule="evenodd" clip-rule="evenodd" d="M200.519 65.0478L46.1873 90.4559C44.846 90.6877 43.9107 91.9588 44.1425 93.2999L78.7013 303.697C78.933 305.038 80.2042 305.973 81.5455 305.741L235.877 280.333C237.218 280.101 238.154 278.83 237.922 277.489L203.363 67.092C203.131 65.7509 201.86 64.8159 200.519 65.0478Z" fill="#F36F49"/>
<path fill-rule="evenodd" clip-rule="evenodd" d="M200.044 57.591L49.4662 82.2483C48.1248 82.4801 47.3086 83.7193 47.5404 85.0604L81.2678 290.45C81.4995 291.791 82.7389 292.607 84.0802 292.376L234.745 267.567C236.086 267.335 236.902 266.096 236.671 264.755L202.943 59.3652C202.624 58.1751 201.385 57.3591 200.044 57.591Z" fill="#FAFBFC"/>
<path opacity="0.8" d="M194.514 66.4715L57.532 89.0166C56.7858 89.0889 56.1354 89.5183 55.7868 90.122C55.4382 90.7256 55.2405 91.4164 55.3128 92.1623L86.4421 281.666C86.5144 282.412 86.9438 283.062 87.5475 283.411C88.1512 283.759 88.8421 283.957 89.5882 283.884L226.602 261.458C227.348 261.386 227.998 260.956 228.347 260.353C228.695 259.749 228.893 259.058 228.821 258.312L197.66 68.6899C197.587 67.944 197.158 67.2937 196.554 66.9452C195.951 66.5967 195.26 66.3992 194.514 66.4715ZM227.718 258.48C227.845 258.957 227.703 259.377 227.409 259.711C227.116 260.045 226.791 260.26 226.315 260.387L89.4521 282.9C88.976 283.028 88.5551 282.885 88.2213 282.592C87.8876 282.299 87.6729 281.974 87.5453 281.498L56.3842 91.8753C56.2566 91.3992 56.399 90.9784 56.6924 90.6447C56.9857 90.311 57.3109 90.0963 57.7871 89.9687L194.769 67.4236C195.245 67.2961 195.666 67.4384 196 67.7316C196.333 68.0249 196.548 68.35 196.676 68.8261L227.718 258.48Z" fill="#F58A6B"/>
<path fill-rule="evenodd" clip-rule="evenodd" d="M116.471 31.3842C113.551 31.9117 111.593 34.6047 112.12 37.5249C112.648 40.445 115.341 42.4021 118.262 41.8746C121.182 41.3471 123.14 38.654 122.613 35.7339C122.117 32.9328 119.392 30.8567 116.471 31.3842Z" fill="#FAFBFC"/>
<path fill-rule="evenodd" clip-rule="evenodd" d="M157.594 39.627L80.5906 52.2237C78.8922 52.5512 77.6636 54.156 77.9039 56.005L81.4928 77.4938C81.8203 79.1919 83.4252 80.4201 85.2746 80.1797L162.278 67.583C163.976 67.2555 165.205 65.6507 164.964 63.8017L161.463 42.162C161.016 40.4958 159.292 39.2995 157.594 39.627Z" fill="#F58A6B"/>
<path opacity="0.8" fill-rule="evenodd" clip-rule="evenodd" d="M116.151 49.7113L86.8168 54.51C85.4755 54.7418 84.5402 56.0129 84.772 57.354L87.5615 73.9546C87.7932 75.2957 89.0644 76.2306 90.4057 75.9988L119.74 71.2001C121.082 70.9682 122.017 69.6971 121.785 68.3561L118.996 51.7555C118.764 50.4144 117.493 49.4794 116.151 49.7113Z" fill="#F36F49"/>
<path opacity="0.2" d="M112.061 104.02L112.4 106.086L193.024 92.8334L192.684 90.7665L112.061 104.02Z" fill="#EE4D47"/>
<path opacity="0.2" d="M112.91 109.251L113.25 111.318L193.873 98.0645L193.533 95.9976L112.91 109.251Z" fill="#EE4D47"/>
<path opacity="0.2" d="M153.971 107.704L154.311 109.771L194.683 103.134L194.343 101.067L153.971 107.704Z" fill="#EE4D47"/>
<path opacity="0.2" d="M113.757 114.342L114.097 116.409L151.915 110.192L151.576 108.125L113.757 114.342Z" fill="#EE4D47"/>
<path opacity="0.2" d="M117.621 138.205L117.961 140.272L198.584 127.019L198.244 124.952L117.621 138.205Z" fill="#EE4D47"/>
<path opacity="0.2" d="M118.471 143.437L118.811 145.504L199.434 132.25L199.094 130.183L118.471 143.437Z" fill="#EE4D47"/>
<path opacity="0.2" d="M159.655 141.87L159.995 143.937L200.367 137.3L200.028 135.233L159.655 141.87Z" fill="#EE4D47"/>
<path opacity="0.2" d="M119.32 148.528L119.659 150.594L157.478 144.378L157.138 142.311L119.32 148.528Z" fill="#EE4D47"/>
<path opacity="0.2" d="M122.678 168.865L123.018 170.932L203.641 157.678L203.301 155.612L122.678 168.865Z" fill="#EE4D47"/>
<path opacity="0.2" d="M123.528 174.096L123.867 176.163L204.49 162.91L204.151 160.843L123.528 174.096Z" fill="#EE4D47"/>
<path opacity="0.2" d="M164.711 172.529L165.051 174.596L205.423 167.959L205.083 165.893L164.711 172.529Z" fill="#EE4D47"/>
<path opacity="0.2" d="M124.374 179.188L124.714 181.255L162.533 175.038L162.193 172.971L124.374 179.188Z" fill="#EE4D47"/>
<path opacity="0.2" d="M127.848 200.445L128.188 202.512L208.811 189.259L208.471 187.192L127.848 200.445Z" fill="#EE4D47"/>
<path opacity="0.2" d="M128.719 205.798L129.059 207.865L209.682 194.612L209.342 192.545L128.719 205.798Z" fill="#EE4D47"/>
<path opacity="0.2" d="M169.901 204.231L170.24 206.298L210.613 199.662L210.273 197.595L169.901 204.231Z" fill="#EE4D47"/>
<path opacity="0.2" d="M129.565 210.89L129.904 212.957L167.723 206.74L167.383 204.673L129.565 210.89Z" fill="#EE4D47"/>
<path opacity="0.2" d="M132.939 231.822L133.278 233.889L213.901 220.636L213.562 218.569L132.939 231.822Z" fill="#EE4D47"/>
<path opacity="0.2" d="M133.788 237.054L134.128 239.121L214.751 225.867L214.411 223.8L133.788 237.054Z" fill="#EE4D47"/>
<path opacity="0.2" d="M174.972 235.486L175.312 237.553L215.684 230.917L215.344 228.85L174.972 235.486Z" fill="#EE4D47"/>
<path opacity="0.2" d="M134.758 242.126L135.098 244.192L172.916 237.976L172.577 235.909L134.758 242.126Z" fill="#EE4D47"/>
<path opacity="0.2" d="M74.0205 104.37L73.0363 104.506L73.1724 105.49L76.2022 123.94L76.3383 124.924L77.3225 124.788L97.1169 121.525L98.1011 121.388L97.965 120.404L94.9353 101.955L94.7992 100.971L93.815 101.107L74.0205 104.37ZM95.8925 119.812L77.9155 122.715L75.126 106.115L92.9839 103.243L95.8925 119.812Z" fill="#EE4D47"/>
<path opacity="0.2" d="M79.6574 139.214L78.6732 139.35L78.9283 140.302L81.9581 158.752L82.0942 159.736L83.0783 159.6L102.873 156.337L103.857 156.201L103.721 155.217L100.691 136.767L100.555 135.783L99.5708 135.919L79.6574 139.214ZM101.529 154.656L83.6713 157.527L80.8818 140.927L98.7398 138.055L101.529 154.656Z" fill="#EE4D47"/>
<path opacity="0.2" d="M85.1494 172.566L84.1652 172.702L84.3013 173.686L87.3311 192.136L87.4672 193.12L88.4514 192.984L108.246 189.721L109.23 189.584L109.094 188.6L106.064 170.151L105.928 169.167L104.944 169.303L85.1494 172.566ZM107.021 188.008L89.1634 190.879L86.3739 174.279L104.232 171.407L107.021 188.008Z" fill="#EE4D47"/>
<path opacity="0.2" d="M90.7051 206.156L89.7209 206.292L89.857 207.276L92.9187 225.845L93.0548 226.829L94.039 226.693L113.833 223.43L114.818 223.294L114.681 222.31L111.652 203.86L111.516 202.876L110.531 203.012L90.7051 206.156ZM112.577 221.598L94.7191 224.47L91.9296 207.869L109.788 204.998L112.577 221.598Z" fill="#EE4D47"/>
<path opacity="0.2" d="M96.0616 238.524L95.0774 238.661L95.2134 239.645L98.2432 258.094L98.3793 259.078L99.3635 258.942L119.158 255.679L120.142 255.543L120.006 254.559L116.976 236.109L116.84 235.125L115.856 235.261L96.0616 238.524ZM117.902 253.847L100.044 256.719L97.2541 240.118L115.112 237.247L117.902 253.847Z" fill="#EE4D47"/>
<path d="M86.3355 113.188L76.0086 107.026L74.8438 108.869L86.1953 115.522L87.1008 116.045L87.6237 115.139L101.593 92.5173L99.7819 91.4719L86.3355 113.188Z" fill="#EE4D47"/>
<path d="M92.2277 148.984L81.9008 142.822L80.736 144.665L92.0875 151.318L92.9612 151.722L93.516 150.935L107.453 128.194L105.642 127.149L92.2277 148.984Z" fill="#F58A6B"/>
<path d="M103.507 217.268L93.0611 211.138L92.0153 212.949L103.248 219.634L104.153 220.156L104.676 219.251L118.765 196.597L116.922 195.433L103.507 217.268Z" fill="#F58A6B"/>
<path fill-rule="evenodd" clip-rule="evenodd" d="M74.1058 323.239C73.0344 323.526 72.4244 324.582 72.7114 325.653C72.9984 326.725 74.0549 327.334 75.1263 327.047C76.1976 326.76 76.8076 325.704 76.5206 324.633C76.2336 323.562 75.1771 322.952 74.1058 323.239Z" fill="#FAFBFC"/>
<path d="M103.496 314.838C104.241 314.504 104.573 313.629 104.239 312.884C103.904 312.139 103.029 311.806 102.284 312.141C101.539 312.476 101.206 313.351 101.541 314.096C101.875 314.841 102.751 315.173 103.496 314.838Z" fill="#FAFBFC"/>
<path d="M144.28 302.777C144.872 302.618 145.223 302.01 145.064 301.419C144.906 300.827 144.298 300.476 143.706 300.635C143.114 300.793 142.763 301.401 142.922 301.993C143.08 302.585 143.688 302.936 144.28 302.777Z" fill="#FAFBFC"/>
<path fill-rule="evenodd" clip-rule="evenodd" d="M165.495 298.623C164.542 298.879 164.019 299.784 164.275 300.736C164.53 301.688 165.435 302.211 166.388 301.956C167.34 301.701 167.863 300.795 167.608 299.843C167.384 299.01 166.447 298.368 165.495 298.623Z" fill="#FAFBFC"/>
<path fill-rule="evenodd" clip-rule="evenodd" d="M197.748 291.384C197.39 291.48 197.216 291.782 197.312 292.139C197.407 292.496 197.709 292.67 198.066 292.575C198.424 292.479 198.598 292.177 198.502 291.82C198.526 291.431 198.105 291.289 197.748 291.384Z" fill="#FAFBFC"/>
<path fill-rule="evenodd" clip-rule="evenodd" d="M264.373 269.578C263.778 269.737 263.548 270.309 263.676 270.785C263.835 271.38 264.407 271.61 264.883 271.482C265.479 271.323 265.708 270.751 265.581 270.275C265.572 269.767 264.968 269.418 264.373 269.578Z" fill="#FAFBFC"/>
<defs>
<linearGradient id="paint0_linear" x1="124.522" y1="-15.9655" x2="172.127" y2="310.013" gradientUnits="userSpaceOnUse">
<stop stop-color="#F7A58D"/>
<stop offset="1" stop-color="#F58A6B"/>
</linearGradient>
</defs>
</svg>
