<svg width="116" height="51" viewBox="0 0 116 51" fill="none" xmlns="http://www.w3.org/2000/svg">
<path d="M115.479 20.0516C115.479 9.00594 106.524 0.0516357 95.4785 0.0516357H19.9992C8.95352 0.0516357 -0.000801086 9.00594 -0.000801086 20.0516V30.4542C-0.000801086 41.4999 8.95351 50.4542 19.9992 50.4542H115.479V20.0516Z" fill="white"/>
<circle r="3.82804" transform="matrix(-1 0 0 1 89.3204 25.5719)" fill="#F4A984"/>
<circle r="3.82804" transform="matrix(-1 0 0 1 73.3692 25.5719)" fill="#F4A984"/>
<circle r="3.82804" transform="matrix(-1 0 0 1 57.419 25.5719)" fill="#F4A984"/>
<circle r="3.82804" transform="matrix(-1 0 0 1 41.4688 25.5719)" fill="#F4A984"/>
<circle r="3.82804" transform="matrix(-1 0 0 1 25.5186 25.5719)" fill="#F4A984"/>
</svg>
