<svg width="80" height="72" viewBox="0 0 80 72" fill="none" xmlns="http://www.w3.org/2000/svg">
<g clip-path="url(#clip0)">
<path d="M80 37.0225H0V70.9534H80V37.0225Z" fill="#FCDDD4"/>
<path fill-rule="evenodd" clip-rule="evenodd" d="M40.4445 28.1768V28.254C41.0793 26.4849 42.3503 23.6688 44.4882 19.4686C48.7299 11.4272 53.4648 5.24902 53.4648 5.24902C53.4648 5.24902 51.3933 12.1137 47.1516 20.1551C43.4011 27.3522 41.3472 30.2556 40.4445 30.6959V31.1063C41.5318 29.677 43.9245 27.2263 48.1382 23.3913C55.1419 17.1151 62.0469 12.604 62.0469 12.604C62.0469 12.604 57.6079 18.3899 50.6042 24.7642C46.4967 28.4508 43.7749 30.6612 42.0762 31.794C43.806 30.7247 46.4957 29.2583 50.4073 27.3139C59.088 22.999 66.9795 20.3512 66.9795 20.3512C66.9795 20.3512 60.8636 24.7642 52.1829 29.0791C45.5716 32.4401 41.993 33.867 40.4445 34.1397V34.4345C41.8366 33.6642 45.3975 32.4277 52.1826 30.5501C61.751 27.9023 70.1358 26.7255 70.1358 26.7255C70.1358 26.7255 62.8361 29.9617 53.2677 32.6095C50.1484 33.4727 47.6581 34.1066 45.7079 34.5486C47.6834 34.2204 50.2352 33.8662 53.4648 33.4921C63.6251 32.2173 72.1084 32.3153 72.1084 32.3153C72.1084 32.3153 64.1183 34.4728 53.958 35.6496C45.7777 36.676 41.7537 36.8125 40.4445 36.5196V36.7283H39.4581V36.5879C39.276 36.6406 39.0216 36.6844 38.6684 36.7283H35.8078C33.6376 36.6303 30.3824 36.4341 25.8448 35.8457C15.6845 34.5709 7.69434 32.5115 7.69434 32.5115C7.69434 32.5115 16.1777 32.4134 26.338 33.6883C29.3909 34.0419 31.8381 34.3689 33.7654 34.6694C31.8666 34.2317 29.4814 33.6209 26.5351 32.8056C16.868 30.1578 9.66704 26.9216 9.66704 26.9216C9.66704 26.9216 18.0517 28.0984 27.6202 30.7462C34.574 32.6705 38.1413 33.9214 39.4581 34.6872V34.3409C37.9662 34.091 34.377 32.6336 27.6207 29.2753C18.9401 24.9603 12.8242 20.5474 12.8242 20.5474C12.8242 20.5474 20.7157 23.1952 29.3963 27.5101C33.063 29.3327 35.656 30.7353 37.3911 31.7846C35.6626 30.599 33.0171 28.4355 29.1988 24.9603C22.1951 18.586 17.7561 12.8001 17.7561 12.8001C17.7561 12.8001 24.6612 17.2131 31.6649 23.5874C34.6753 26.3273 36.7563 28.3606 38.0957 29.8196C36.945 28.331 35.1582 25.3894 32.5524 20.4493C28.3108 12.4079 26.2392 5.54323 26.2392 5.54323C26.2392 5.54323 31.0728 11.7214 35.2158 19.7628C37.6061 24.4023 38.9129 27.377 39.4581 29.1012V28.179C38.9278 26.9619 38.5698 23.4449 38.5698 16.4286C38.5698 7.40649 39.9509 0.0515137 39.9509 0.0515137C39.9509 0.0515137 41.3319 7.40649 41.3319 16.4286C41.3319 23.4407 40.9743 26.9578 40.4445 28.1768ZM39.4581 31.0492C39.3122 31.0376 39.1205 30.9277 38.8786 30.7059C39.1057 30.9756 39.2982 31.2183 39.4581 31.4354V31.0492ZM39.4581 32.9101C39.2174 32.8471 38.9053 32.7112 38.5149 32.493C38.8929 32.7436 39.2057 32.9669 39.4581 33.1644V32.9101ZM40.4445 32.8918C40.7157 32.6853 41.0492 32.4521 41.4504 32.1907C41.0367 32.4369 40.7043 32.5977 40.4445 32.6826V32.8918ZM39.4581 35.5697C39.1403 35.5915 38.6916 35.5695 38.0959 35.4969C38.7271 35.6582 39.1732 35.8082 39.4581 35.9468V35.5697ZM40.4445 35.7902C40.8146 35.6197 41.4027 35.4313 42.2456 35.2273C41.4428 35.3473 40.8512 35.3941 40.4445 35.3788V35.7902Z" fill="#F37753"/>
<path d="M34.6242 36.7283H16.1778C19.0385 36.5322 22.491 36.4341 26.1409 36.4341C29.692 36.4341 32.5527 36.5322 34.6242 36.7283Z" fill="#F37753"/>
<path d="M45.1789 36.7283H63.6252C60.7646 36.5322 57.312 36.336 53.6622 36.4341C50.0124 36.5322 47.2504 36.6302 45.1789 36.7283Z" fill="#F37753"/>
</g>
<defs>
<clipPath id="clip0">
<rect width="80" height="71" fill="white" transform="translate(0 0.0515137)"/>
</clipPath>
</defs>
</svg>
