<svg width="140" height="215" viewBox="0 0 140 215" fill="none" xmlns="http://www.w3.org/2000/svg">
<path d="M46.0001 124.552C2.40006 124.552 24.5001 61.5515 41.0001 30.0515C49.8334 23.3848 71.5 9.95159 87.5 9.55159C103.5 9.15159 113.5 29.0516 116.5 39.0516C114.667 39.2183 112.8 46.8516 120 76.0516C127.2 105.252 123.667 120.552 121 124.552H46.0001Z" fill="#402B2B"/>
<path d="M91.5995 109.592C87.487 102.403 90.5713 91.2771 90.5713 91.2771L77.8911 93.8446L65.2109 91.2771C65.2109 91.2771 66.7531 96.5833 66.2391 102.403C70.6943 107.538 80.9755 117.124 91.5995 109.592Z" fill="url(#paint0_linear)"/>
<path d="M89.7973 95.285C87.0223 96.9567 83.5152 98.5045 79.59 99.6912C74.6659 101.18 69.9747 101.831 66.2921 101.691C66.6294 96.1576 65.2109 91.2771 65.2109 91.2771L77.8911 93.8446L90.5713 91.2771C90.5713 91.2771 90.1241 92.8903 89.7973 95.285Z" fill="url(#paint1_linear)" style="mix-blend-mode:multiply"/>
<path d="M46.876 119.691C54.2442 126.196 68.8093 140.403 78.0624 140.403C87.3156 140.403 103.766 126.88 111.134 120.376C107.535 119.007 96.5687 114.727 93.9984 112.502C93.1416 111.646 92.2848 110.619 91.7708 109.592C81.1468 117.124 70.8656 107.538 66.4104 102.232C66.0677 105.998 65.0395 109.763 62.1265 112.331C59.2135 114.727 50.3031 118.322 46.876 119.691Z" fill="url(#paint2_linear)"/>
<path d="M112.776 52.4218C111.576 50.1966 109.692 49.8543 108.492 50.1966C108.492 50.1966 105.065 39.2418 102.666 31.1968C94.6124 27.4311 87.0728 24.1788 77.9911 23.4942V23.323C76.6202 23.323 74.2213 23.323 72.8504 23.323C67.1958 23.4942 61.5411 23.6653 56.0577 24.6924C54.6869 25.0347 53.3161 25.377 51.9452 25.377C50.2317 34.449 47.3187 50.3678 46.1192 50.1966H45.9478C45.7765 50.1966 45.7765 50.1966 45.6051 50.0254C44.4056 49.6831 43.0348 50.0254 41.8353 52.0795C39.7791 55.8452 41.8353 63.3766 44.577 65.6018C45.9478 66.6289 47.1473 67.4847 48.0041 67.9982C49.3749 74.845 51.7739 81.3494 55.3723 85.2863C64.7968 95.3853 73.5358 97.6105 75.9348 97.9529C76.1061 97.9529 76.4489 97.9529 76.6202 97.9529C76.6202 97.9529 76.7916 97.9529 76.9629 97.9529C78.6765 97.7817 88.1009 96.07 98.2108 85.1152C101.809 81.3494 104.38 78.6107 105.922 68.5117C106.95 67.9982 107.978 67.1424 109.692 65.773C112.776 63.719 114.832 56.1875 112.776 52.4218Z" fill="url(#paint3_linear)"/>
<path d="M77.7363 62.0516C77.7363 62.0516 77.8678 65.9078 76.8249 67.1767C75.7819 68.4455 73.8034 69.6744 73.6402 70.6227C73.4491 71.3906 74.2772 72.7393 75.7224 73.0697C77.1675 73.4001 77.4024 73.9176 77.4024 73.9176C77.4024 73.9176 74.7351 74.6992 73.067 72.9265C71.3989 71.1538 72.6608 69.2973 73.8829 68.1854C75.1051 67.0734 75.6544 66.6193 76.1759 65.9849C76.8487 65.327 77.7363 62.0516 77.7363 62.0516Z" fill="#D87C60"/>
<path d="M88.0659 79.0516H67.3645C66.6886 79.0516 66.2125 79.7068 66.4834 80.326C67.9426 83.6608 71.5243 88.5516 77.5 88.5516C83.4514 88.5516 87.2836 83.7004 88.9295 80.3667C89.2375 79.7428 88.7616 79.0516 88.0659 79.0516Z" fill="#D87C60"/>
<path fill-rule="evenodd" clip-rule="evenodd" d="M87.9756 82.0516H67.3668C67.0153 81.4537 66.7213 80.8692 66.4836 80.326C66.2126 79.7068 66.6887 79.0516 67.3646 79.0516H88.066C88.7618 79.0516 89.2377 79.7428 88.9296 80.3667C88.6672 80.8983 88.3491 81.4686 87.9756 82.0516Z" fill="white"/>
<path d="M97.5977 10.9989C123.129 14.2511 117.132 45.404 112.163 50.8814L108.5 57.0516C106.667 53.885 102.9 45.1516 102.5 35.5516C98.6669 38.0516 87.2002 43.0516 72.0002 43.0516C53.0002 43.0516 47.7923 46.1967 46 55.0516C41.5448 45.1238 38.4805 25.0348 49.4472 13.7376C64.5264 -2.00999 87.3165 -5.77572 97.5977 10.9989Z" fill="#402B2B"/>
<path d="M46.0187 54.9894L46.8755 62.3497C46.8755 62.3497 44.3052 60.9804 43.7912 57.557C43.6198 55.503 44.4766 54.1336 46.0187 54.9894Z" fill="#ED8A40"/>
<path d="M108.219 54.9894L107.362 62.3497C107.362 62.3497 109.933 60.9804 110.447 57.557C110.618 55.503 109.933 54.1336 108.219 54.9894Z" fill="#ED8A40"/>
<path d="M94.6854 63.3123C94.6854 64.8529 93.4859 66.2222 91.7724 66.2222C90.2302 66.2222 88.8594 65.024 88.8594 63.3123C88.8594 61.7718 90.0588 60.4025 91.7724 60.4025C93.4859 60.4025 94.6854 61.7718 94.6854 63.3123Z" fill="#402B2B"/>
<path d="M64.1835 66.2222C65.7924 66.2222 67.0966 64.9194 67.0966 63.3123C67.0966 61.7053 65.7924 60.4025 64.1835 60.4025C62.5747 60.4025 61.2705 61.7053 61.2705 63.3123C61.2705 64.9194 62.5747 66.2222 64.1835 66.2222Z" fill="#402B2B"/>
<path d="M56.541 57.9124C57.79 56.5499 61.4459 53.825 66.0783 53.825" stroke="#402B2B" stroke-width="2"/>
<path d="M89.5805 53.9419C91.427 53.8616 95.939 54.5199 99.2146 57.7955" stroke="#402B2B" stroke-width="2"/>
<path d="M139.065 158.547C139.75 140.061 134.096 129.106 125.528 124.484C116.96 119.863 96.7406 114.043 96.0551 113.872L77.7203 128.421L60.2421 113.872C59.5567 114.043 38.8229 119.863 30.4265 124.484C21.8588 129.106 16.2041 140.061 16.8896 158.547C17.4036 173.439 16.3755 196.889 16.5468 214.006H139.579C139.579 196.889 138.551 173.439 139.065 158.547Z" fill="url(#paint4_linear)"/>
<path d="M87.8296 120.205L83.0317 117.98L77.5483 128.079L72.065 117.98L67.0957 120.205L74.2926 131.845V214.006H80.9754V131.331L87.8296 120.205Z" fill="#EE4D47" fill-opacity="0.29" style="mix-blend-mode:multiply"/>
<path d="M66.2395 102.232C66.0681 107.196 73.0936 120.034 73.0936 120.034L60.9275 131.844L56.9863 114.728C56.9863 114.728 60.9275 104.286 66.2395 102.232Z" fill="white"/>
<path d="M89.543 102.232C89.7143 107.196 81.832 120.205 81.832 120.205L94.6836 131.844L98.6247 114.556C98.6247 114.556 94.8549 104.286 89.543 102.232Z" fill="white"/>
<path d="M79.6068 134.754C79.6068 135.781 78.75 136.637 77.7218 136.637C76.6937 136.637 75.8369 135.781 75.8369 134.754C75.8369 133.727 76.6937 132.872 77.7218 132.872C78.75 132.872 79.6068 133.727 79.6068 134.754Z" fill="white"/>
<path d="M79.6058 152.214C79.6058 153.241 78.749 154.097 77.7208 154.097C76.6927 154.097 75.8359 153.241 75.8359 152.214C75.8359 151.187 76.6927 150.331 77.7208 150.331C78.749 150.331 79.6058 151.015 79.6058 152.214Z" fill="white"/>
<path d="M79.6058 169.331C79.6058 170.358 78.749 171.213 77.7208 171.213C76.6927 171.213 75.8359 170.358 75.8359 169.331C75.8359 168.304 76.6927 167.448 77.7208 167.448C78.749 167.448 79.6058 168.304 79.6058 169.331Z" fill="white"/>
<path d="M79.6058 188.33C79.6058 189.358 78.749 190.213 77.7208 190.213C76.6927 190.213 75.8359 189.358 75.8359 188.33C75.8359 187.303 76.6927 186.448 77.7208 186.448C78.749 186.448 79.6058 187.303 79.6058 188.33Z" fill="white"/>
<path d="M19.6309 129.619C19.6309 129.619 1.46739 178.403 0.0965593 186.448C-1.10292 194.493 9.17833 213.15 13.9762 213.835C21.0018 214.862 26.6565 212.808 33.682 200.826C40.5362 188.844 39.3367 137.664 39.3367 137.664L19.6309 129.619Z" fill="url(#paint5_linear)"/>
<path d="M39.5077 132.872C39.5077 132.872 38.3083 191.754 35.738 199.114C31.6255 210.925 21.1729 214.177 21.1729 214.177H32.8249C32.8249 214.177 41.9067 208.186 42.7635 190.213C43.2775 179.43 41.3926 145.025 40.3645 133.556C40.0218 130.475 39.5077 132.872 39.5077 132.872Z" fill="#EE4D47" fill-opacity="0.29" style="mix-blend-mode:multiply"/>
<path d="M43.535 127.315L23.834 119.364L19.7259 129.521L39.4269 137.472L43.535 127.315Z" fill="white"/>
<path d="M117.989 141.259C117.989 141.259 110.963 174.637 110.449 188.331C109.935 202.024 110.449 213.835 110.449 213.835L115.418 214.177C115.418 214.177 116.618 154.268 117.989 141.259Z" fill="#EE4D47" fill-opacity="0.29" style="mix-blend-mode:multiply"/>
<path d="M58.3559 95.0431C48.9314 95.0431 45.8471 90.4215 43.9622 83.4036C43.1054 79.6379 42.7627 69.5389 42.7627 69.1965H45.5044C45.5044 69.3677 45.8471 79.4667 46.7038 82.8901C48.4174 89.5657 50.9877 92.9891 60.2408 92.3044L60.4122 95.0431C59.7267 95.0431 59.0413 95.0431 58.3559 95.0431Z" fill="white"/>
<path d="M77.7198 1.92682C70.1803 1.24214 52.8735 1.75565 44.9912 16.8186C44.9912 16.8186 47.0475 20.4131 49.4464 18.0167C58.0141 10.3141 70.0089 10.143 77.3771 10.143C84.9167 10.143 97.4256 10.143 105.822 18.0167C108.392 20.2419 110.277 16.8186 110.277 16.8186C102.566 1.75565 85.2594 1.24214 77.7198 1.92682Z" fill="white"/>
<path d="M118.33 53.6199C118.33 53.6199 117.988 43.1786 117.816 40.2687C117.474 34.6201 116.617 25.377 114.732 20.4131C108.563 3.46731 88.5147 0.215088 78.0621 0.215088C67.4381 0.215088 47.047 3.46731 40.8783 20.2419C39.1647 25.0347 38.308 33.5931 37.7939 39.4129C37.6225 42.8363 37.4512 53.4488 37.4512 53.4488H40.3642C40.3642 53.4488 40.3642 42.8363 40.7069 39.4129C41.0496 34.9625 41.9064 28.458 44.134 22.2959C49.2746 7.74654 68.2949 6.20602 77.5481 6.20602C86.9725 6.20602 106.336 7.74654 111.476 22.2959C113.875 29.1427 114.732 36.1607 115.075 40.6111C115.246 43.521 115.417 53.6199 115.417 53.6199H118.33Z" fill="url(#paint6_linear)"/>
<path d="M41.0501 51.566H37.2803V67.656H41.0501V51.566Z" fill="white"/>
<path d="M47.7333 70.7369H43.4495C41.3932 70.7369 39.6797 69.0252 39.6797 66.9712V52.2506C39.6797 50.1966 41.3932 48.4849 43.4495 48.4849H47.7333C48.2474 48.4849 48.5901 48.8272 48.5901 49.3407V69.7099C48.5901 70.2234 48.2474 70.7369 47.7333 70.7369Z" fill="url(#paint7_linear)"/>
<path d="M35.738 69.0252H35.5666C34.7098 69.0252 34.0244 68.3406 34.0244 67.4847V51.3948C34.0244 50.5389 34.7098 49.8542 35.5666 49.8542H35.738C36.5947 49.8542 37.2801 50.5389 37.2801 51.3948V67.4847C37.2801 68.3406 36.5947 69.0252 35.738 69.0252Z" fill="url(#paint8_linear)"/>
<path d="M114.177 67.934H117.947V51.844H114.177V67.934Z" fill="white"/>
<path d="M107.707 71.0792H111.991C114.047 71.0792 115.76 69.3675 115.76 67.3134V52.5929C115.76 50.5388 114.047 48.8271 111.991 48.8271H107.707C107.193 48.8271 106.85 49.1695 106.85 49.683V70.0522C106.679 70.5657 107.193 71.0792 107.707 71.0792Z" fill="url(#paint9_linear)"/>
<path d="M119.53 69.3675H119.702C120.559 69.3675 121.244 68.6828 121.244 67.827V51.7371C121.244 50.8812 120.559 50.1965 119.702 50.1965H119.53C118.674 50.1965 117.988 50.8812 117.988 51.7371V67.827C117.988 68.6828 118.674 69.3675 119.53 69.3675Z" fill="url(#paint10_linear)"/>
<path d="M68.4669 93.3313C68.4669 95.043 66.4107 96.5835 63.669 96.5835C61.0987 96.5835 58.8711 95.2142 58.8711 93.3313C58.8711 91.4485 60.9273 90.0791 63.669 90.0791C66.2393 90.0791 68.4669 91.4485 68.4669 93.3313Z" fill="url(#paint11_linear)"/>
<path fill-rule="evenodd" clip-rule="evenodd" d="M32.6545 82.3768L32.6552 82.3763C34.2489 80.8839 36.0742 79.8542 37.8282 78.9845C40.9808 76.9451 44.657 74.6249 46.0201 73.9895C48.7618 72.6201 50.4753 75.0165 46.5342 78.4399C45.6789 79.1828 44.6865 79.974 43.6566 80.7577C45.7966 79.9381 47.6908 79.2341 48.5899 78.9534C51.5029 78.0976 52.8737 80.8363 48.2472 83.4038C46.3655 84.4481 44.0019 85.5773 41.8597 86.5496L42.5933 88.8811C42.5933 88.8811 44.6495 86.9983 45.335 86.4848C49.6188 83.5749 51.8464 85.9713 49.9615 88.5388C47.9053 91.1063 44.8209 98.4666 45.849 103.602C46.5344 107.025 46.0204 111.818 45.1636 115.584C44.3068 119.178 38.9948 129.791 38.9948 129.791L25.2865 124.998C25.2865 124.998 28.3709 121.746 27.8568 113.872C27.7049 111.291 26.6767 108.576 25.6541 105.875C24.3708 102.485 23.0962 99.1186 23.573 96.0703C24.4297 91.2777 31.4546 83.5756 32.6546 82.3769L32.6545 82.3768Z" fill="url(#paint12_linear)"/>
<path opacity="0.3" d="M44.9919 102.917C45.3346 98.6377 44.9919 97.7819 44.6492 95.7279C44.3064 93.3315 44.8205 90.2504 43.7924 88.0252C42.5929 85.6289 40.708 84.2595 37.4523 84.9442C33.1684 85.9712 31.4549 88.1964 31.4549 88.1964C31.4549 88.1964 34.882 86.8271 36.5955 86.3136C39.1658 85.6289 41.7361 85.8 42.7643 88.8811C43.2783 90.764 43.621 93.3315 43.9637 95.2144C44.1351 96.5837 45.1632 102.575 44.3064 102.746C43.4497 102.746 41.5648 102.232 40.708 99.1513C40.5366 99.8359 40.3653 104.458 39.8512 104.458C36.7669 104.115 36.4242 101.719 36.2528 99.1513C36.2528 97.9531 36.0814 96.2414 35.7387 94.0162C34.5393 95.899 31.6262 97.6107 30.4268 98.4666C31.7976 99.6648 34.3679 102.575 35.396 103.773C37.2809 105.998 38.9945 109.421 39.3372 113.016C43.9637 108.566 41.3934 103.944 41.2221 102.403C42.4215 103.773 44.8205 104.8 44.9919 102.917Z" fill="#EB5046"/>
<defs>
<linearGradient id="paint0_linear" x1="92.7877" y1="101.548" x2="89.7335" y2="67.7625" gradientUnits="userSpaceOnUse">
<stop stop-color="#FFB3B6"/>
<stop offset="1" stop-color="#FFC8C1"/>
</linearGradient>
<linearGradient id="paint1_linear" x1="65.3801" y1="97.5888" x2="94.1142" y2="107.937" gradientUnits="userSpaceOnUse">
<stop stop-color="#FFB3B6" stop-opacity="0.31"/>
<stop offset="1" stop-color="#FFC8C1"/>
</linearGradient>
<linearGradient id="paint2_linear" x1="118.363" y1="155.46" x2="112.234" y2="92.2593" gradientUnits="userSpaceOnUse">
<stop stop-color="#FFB3B6"/>
<stop offset="1" stop-color="white"/>
</linearGradient>
<linearGradient id="paint3_linear" x1="116.873" y1="88.9081" x2="110.989" y2="38.2791" gradientUnits="userSpaceOnUse">
<stop stop-color="#FFB3B6"/>
<stop offset="1" stop-color="#FFC8C1"/>
</linearGradient>
<linearGradient id="paint4_linear" x1="78.0532" y1="90.6934" x2="78.0532" y2="216.748" gradientUnits="userSpaceOnUse">
<stop stop-color="#F4A984"/>
<stop offset="1" stop-color="#EE4D47"/>
</linearGradient>
<linearGradient id="paint5_linear" x1="19.7086" y1="110.072" x2="19.7086" y2="216.379" gradientUnits="userSpaceOnUse">
<stop stop-color="#F4A984"/>
<stop offset="1" stop-color="#EE4D47"/>
</linearGradient>
<linearGradient id="paint6_linear" x1="77.8907" y1="-12.1467" x2="77.8907" y2="55.0823" gradientUnits="userSpaceOnUse">
<stop stop-color="#F4A984"/>
<stop offset="1" stop-color="#EE4D47"/>
</linearGradient>
<linearGradient id="paint7_linear" x1="44.1349" y1="43.3341" x2="44.1349" y2="71.3462" gradientUnits="userSpaceOnUse">
<stop stop-color="#F4A984"/>
<stop offset="1" stop-color="#EE4D47"/>
</linearGradient>
<linearGradient id="paint8_linear" x1="35.6523" y1="45.4167" x2="35.6523" y2="69.5502" gradientUnits="userSpaceOnUse">
<stop stop-color="#F4A984"/>
<stop offset="1" stop-color="#EE4D47"/>
</linearGradient>
<linearGradient id="paint9_linear" x1="111.288" y1="43.6764" x2="111.288" y2="71.6885" gradientUnits="userSpaceOnUse">
<stop stop-color="#F4A984"/>
<stop offset="1" stop-color="#EE4D47"/>
</linearGradient>
<linearGradient id="paint10_linear" x1="119.616" y1="45.759" x2="119.616" y2="69.8924" gradientUnits="userSpaceOnUse">
<stop stop-color="#F4A984"/>
<stop offset="1" stop-color="#EE4D47"/>
</linearGradient>
<linearGradient id="paint11_linear" x1="63.669" y1="88.5735" x2="63.669" y2="96.7616" gradientUnits="userSpaceOnUse">
<stop stop-color="#F4A984"/>
<stop offset="1" stop-color="#EE4D47"/>
</linearGradient>
<linearGradient id="paint12_linear" x1="37" y1="127.552" x2="59.5" y2="43.5516" gradientUnits="userSpaceOnUse">
<stop stop-color="#FFB3B6"/>
<stop offset="0.239165" stop-color="#FFC5C7"/>
<stop offset="1" stop-color="white"/>
</linearGradient>
</defs>
</svg>
