<svg width="191" height="95" viewBox="0 0 191 95" fill="none" xmlns="http://www.w3.org/2000/svg">
<path d="M188.072 73.9826C186.14 65.1337 182.951 56.7656 178.7 49.0708C178.12 48.0128 177.443 46.8586 176.767 45.8005C171.839 37.6248 165.752 30.3148 158.699 23.9666C157.829 23.1009 156.863 22.3314 155.897 21.562C148.36 15.31 139.76 10.2122 130.485 6.55715C129.325 6.07623 128.166 5.6915 127.006 5.30676C117.73 2.03648 107.682 0.208971 97.3429 0.0166016C96.7631 0.0166016 96.0868 0.0166016 95.5071 0.0166016C94.9273 0.0166016 94.2509 0.0166016 93.6712 0.0166016C83.2359 0.208971 73.2837 2.03648 64.0079 5.30676C62.8484 5.6915 61.689 6.17241 60.5295 6.55715C51.2537 10.2122 42.6542 15.31 35.1176 21.562C34.1513 22.3314 33.1851 23.1971 32.3155 23.9666C25.262 30.3148 19.0781 37.6248 14.247 45.8005C13.5706 46.8586 12.9909 48.0128 12.3145 49.0708C8.06309 56.7656 4.87454 65.1337 2.94208 73.9826C2.65221 75.233 2.45894 76.4835 2.16907 77.7339C1.20284 83.1202 0.719727 88.6027 0.719727 94.1814H190.198C190.198 88.6027 189.715 83.024 188.748 77.7339C188.555 76.4835 188.362 75.233 188.072 73.9826Z" fill="#0F264C"/>
</svg>
