<svg width="187" height="94" viewBox="0 0 187 94" fill="none" xmlns="http://www.w3.org/2000/svg">
<path d="M183.946 73.064C182.049 64.3229 178.918 56.0569 174.744 48.456C174.175 47.4109 173.511 46.2707 172.847 45.2256C168.008 37.1496 162.032 29.9287 155.107 23.6579C154.253 22.8028 153.304 22.0427 152.355 21.2826C144.956 15.1069 136.513 10.0712 127.406 6.46079C126.267 5.98573 125.129 5.60569 123.99 5.22565C114.883 1.99525 105.017 0.190023 94.8664 0C94.2972 0 93.6331 0 93.0639 0C92.4947 0 91.8307 0 91.2615 0C81.0159 0.190023 71.2446 1.99525 62.1375 5.22565C60.9991 5.60569 59.8607 6.08074 58.7223 6.46079C49.6151 10.0712 41.172 15.1069 33.7724 21.2826C32.8238 22.0427 31.8751 22.8978 31.0213 23.6579C24.0961 29.9287 18.0246 37.1496 13.2813 45.2256C12.6172 46.2707 12.048 47.4109 11.384 48.456C7.20984 56.0569 4.07927 64.3229 2.18194 73.064C1.89734 74.2992 1.70759 75.5344 1.423 76.7695C0.474332 82.0902 0 87.5058 0 93.0165H186.033C186.033 87.5058 185.559 81.9951 184.61 76.7695C184.42 75.5344 184.23 74.2992 183.946 73.064Z" fill="#FCDDD4"/>
</svg>
