<svg width="274" height="195" viewBox="0 0 274 195" fill="none" xmlns="http://www.w3.org/2000/svg">
<path d="M229.977 162.527C229.977 162.527 254.678 187.943 234.317 193.522C213.955 199.101 194.69 182.686 168.655 187.135C124.023 194.761 50.736 204.679 11.0634 130.293C-38.5274 37.3101 90.8899 0.117092 156.116 0.117432C234.363 0.117839 265.216 33.5912 272.655 79.4627C278.606 116.16 246.094 151.369 229.977 162.527Z" fill="url(#paint0_linear)"/>
<path d="M135.914 111.236L137.108 85.6577C141.888 84.4177 145.879 82.1422 149.081 78.8313C152.282 75.5203 154.135 71.3201 154.638 66.2307C155.231 60.243 154.616 55.4459 152.792 51.8392C150.979 48.1328 148.453 46.1193 145.214 45.7988C142.369 45.5171 140.062 46.2966 138.294 48.137C136.624 49.9872 135.18 52.5651 133.961 55.8707L131.336 62.8665C130.117 66.1721 128.354 68.4665 126.047 69.7497C123.848 70.9429 121.585 71.2732 119.26 70.7408C117.032 70.218 115.173 68.9759 113.683 67.0145C112.202 64.9534 111.619 62.3261 111.936 59.1327C112.331 55.1409 114.094 51.8388 117.227 49.2265C120.457 46.6238 124.409 44.7475 129.081 43.5975C133.753 42.4476 138.543 42.1154 143.45 42.601C153.362 43.5819 160.902 46.4948 166.072 51.3395C171.339 56.1939 173.548 62.9123 172.699 71.4946C172.116 77.3824 170.199 82.2313 166.948 86.0412C163.697 89.8511 159.686 92.83 154.915 94.9778C150.252 97.0356 145.447 98.5252 140.5 99.4464L138.564 111.499L135.914 111.236ZM132.506 147.177C128.973 146.827 126.054 145.279 123.75 142.531C121.543 139.794 120.618 136.628 120.973 133.036C121.319 129.543 122.842 126.671 125.542 124.419C128.351 122.076 131.521 121.08 135.054 121.43C138.685 121.789 141.55 123.383 143.649 126.21C145.855 128.948 146.786 132.063 146.44 135.556C146.084 139.149 144.556 142.071 141.856 144.323C139.254 146.585 136.137 147.536 132.506 147.177Z" fill="white"/>
<defs>
<linearGradient id="paint0_linear" x1="39.6726" y1="-122.62" x2="268.334" y2="210.785" gradientUnits="userSpaceOnUse">
<stop stop-color="#F4A984"/>
<stop offset="1" stop-color="#EE4D47"/>
</linearGradient>
</defs>
</svg>
