<svg width="206" height="567" viewBox="0 0 206 567" fill="none" xmlns="http://www.w3.org/2000/svg">
<path d="M69.0211 38.045H89.6895L92.4883 25.5524C92.4883 25.5524 84.3071 30.291 82.3695 27.0602C80.4318 23.8294 80.8624 25.1217 78.9247 25.5524C76.9871 25.9832 76.9871 23.3986 74.6188 24.9063C72.0353 26.6294 68.16 34.8141 69.0211 38.045Z" fill="#6B1912"/>
<path d="M28.6318 194.023L40.4097 165.508L73.5277 177.922C72.386 187.056 52.1875 204.561 40.4097 216.959L28.6318 194.023Z" fill="url(#paint0_linear)"/>
<path d="M56.2155 110.923C56.2155 110.923 38.0814 143.814 27.4522 192.165C24.1817 207.043 24.9727 214.729 29.9318 218.201C36.1306 222.54 47.2873 218.82 52.8663 207.043C58.5465 194.026 69.0479 165.792 71.4039 152.222C71.4039 152.222 67.3282 113.362 56.2155 110.923Z" fill="url(#paint1_linear)"/>
<path d="M56.1044 110.415C56.1044 110.415 57.1808 135.184 60.4103 254.295C60.4103 254.295 89.6904 269.156 148.035 258.818C148.035 258.818 148.251 223.063 156.216 191.401C156.216 191.401 171.072 131.738 163.536 114.292C163.536 114.292 115.956 84.7834 56.1044 110.415Z" fill="url(#paint2_linear)"/>
<path d="M101.315 86.8077L100.884 102.23C100.884 102.23 104.544 107.615 113.371 108.261C122.198 108.692 126.504 103.738 126.504 103.738L127.365 80.7769C116.385 85.5154 105.621 87.4539 101.315 86.8077Z" fill="url(#paint3_linear)"/>
<path d="M102.177 80.4761L101.316 97.4918C105.622 98.138 116.386 96.1995 127.151 91.4609L127.797 80.4761H102.177Z" fill="url(#paint4_linear)" style="mix-blend-mode:multiply"/>
<path d="M160.522 147.892C160.522 147.892 147.82 176.539 143.298 189.462C138.777 202.17 138.777 252.786 115.095 262.479C115.095 262.479 140.284 260.971 148.25 258.817C148.25 258.817 148.681 220.693 156.431 191.4C156.431 191.4 161.814 160.6 163.967 146.6L160.522 147.892Z" fill="#EE4D47" fill-opacity="0.29" style="mix-blend-mode:multiply"/>
<path d="M143.729 42.9995C143.299 43.2149 142.868 50.1073 142.868 50.1073L141.146 64.5383L133.18 70.7846L128.659 72.7231C128.659 72.7231 121.985 69.923 122.846 67.3384C123.707 64.9691 128.013 30.9377 128.874 30.9377C129.735 30.9377 136.625 35.8916 136.625 35.8916L143.729 42.9995Z" fill="#402B2B"/>
<path d="M80.6487 30.0754C78.7111 30.0754 81.7252 53.7682 81.7252 53.7682L85.1699 44.2911L87.5381 32.8755L80.6487 30.0754Z" fill="#402B2B"/>
<path d="M83.8779 34.8125L80.2179 65.1823C80.2179 65.1823 78.9261 90.8136 100.025 92.3213C121.124 93.6136 135.549 72.7209 135.549 72.7209C135.549 72.7209 138.132 75.7363 140.931 70.567C143.514 65.3977 141.792 58.5053 138.132 57.8591C134.257 57.4283 132.534 59.5822 132.104 62.813C131.673 66.0438 131.243 68.4131 131.243 68.4131L128.013 67.9824L130.381 42.9973C130.381 42.9973 125.43 33.3048 119.832 31.3663C114.234 29.4278 109.283 37.1818 109.283 37.1818C109.283 37.1818 104.116 38.2587 99.1638 37.1818C94.212 36.1048 90.9826 34.8125 90.9826 34.8125C90.9826 34.8125 87.9684 35.674 83.8779 34.8125Z" fill="url(#paint5_linear)"/>
<path d="M99.9774 210.76C99.9774 210.76 67.1235 205.801 67.1235 200.842C67.1235 195.883 73.9423 184.105 78.9013 170.468C83.8604 156.831 88.1996 135.135 90.0593 130.795C91.9189 126.456 84.4803 138.854 84.4803 138.854C72.2892 154.764 47.4112 187.701 45.4275 192.164C43.4439 196.627 42.5348 207.248 42.3281 212L51.0065 216.959L76.4218 213.86L99.9774 210.76Z" fill="#EE4D47" fill-opacity="0.29" style="mix-blend-mode:multiply"/>
<path d="M89.3799 79.3455C89.3799 76.8657 91.9073 73.1598 96.1986 74.3862C100.538 75.6264 101.571 79.3453 101.778 81.8248" stroke="#893D43"/>
<path d="M83.1818 115.299C83.1818 115.299 29.2526 184.745 28.0128 195.884C26.7731 207.023 25.871 218.009 37.1416 219.365C48.4122 220.722 59.1193 202.975 63.0641 193.932L72.0239 171.088L90.6204 125.837L83.1818 115.299Z" fill="url(#paint6_linear)"/>
<path d="M90.6792 130.175C90.6792 123.976 83.2402 121.497 77.0414 121.497L38.6089 174.807C30.757 185.758 17.2848 211.008 31.1702 219.439C45.0556 227.869 60.5115 206.421 65.8838 195.263C68.8593 188.32 83.6539 148.978 90.6792 130.175Z" fill="url(#paint7_linear)"/>
<path d="M83.2407 116.538C83.2407 116.538 79.4529 101.816 83.4767 92.2366C83.4767 92.2366 85.6732 87.9526 88.0414 89.7939C90.6782 91.4915 92.7499 87.6197 95.3867 89.3173C98.0235 91.0149 100.133 88.5043 102.746 91.7691C102.746 91.7691 105.719 90.8692 107.425 93.41C109.132 95.9508 113.039 101.632 112.19 102.949C111.341 104.267 108.459 110.818 107.715 111.043C106.972 111.268 105.611 111.306 104.997 108.871C104.997 108.871 104.93 111.325 103.645 114.085C102.565 116.907 99.0506 120.342 99.0506 120.342L90.0595 126.455L83.2407 116.538Z" fill="url(#paint8_linear)"/>
<path d="M106.051 27.0598V5.09009C119.184 5.73625 132.748 8.32089 139.422 16.5057C147.388 26.1982 142.867 48.5987 142.867 48.5987C142.867 48.5987 133.178 47.5217 131.456 44.2909C129.734 41.0601 113.371 36.5368 100.884 37.183C88.397 37.8292 82.3688 36.5369 76.1252 31.1522C74.8335 30.0752 73.757 28.5675 72.8958 26.8444H106.051V27.0598Z" fill="#402B2B"/>
<path d="M144.374 40.4139C144.374 40.4139 135.116 37.3984 119.615 36.1061C93.5643 25.1213 82.369 27.0598 82.369 27.0598C82.369 27.0598 82.5842 18.6596 84.9525 12.8441C87.3207 7.02862 103.253 -1.15615 116.601 0.136188C129.949 1.42852 143.728 11.3364 145.881 20.8135C147.603 28.1367 144.374 40.4139 144.374 40.4139Z" fill="url(#paint9_linear)"/>
<path d="M128.658 37.1858C125.859 23.8317 105.837 17.1547 91.6275 17.37C77.6333 17.5854 67.7298 29.2164 66.2227 37.1858C65.5768 40.4166 68.1603 40.8474 69.0215 38.0473C69.6674 36.1088 70.9592 26.8471 83.8769 27.9241C96.7945 29.001 96.1487 40.632 102.608 41.709C108.636 42.7859 115.525 38.4781 128.658 37.1858Z" fill="url(#paint10_linear)"/>
<path d="M84.5431 45.1001L83.8722 43.7499C84.4507 43.4625 88.5977 40.6804 94.5713 39.1555L95.4327 41.3731C90.3273 42.2262 84.5431 45.1001 84.5431 45.1001Z" fill="#402B2B"/>
<path d="M121.193 50.7672C118.613 47.1616 112.459 43.0547 112.551 42.8601L114.252 41.2821C114.446 41.3743 119.925 45.3994 122.617 49.7733L121.193 50.7672Z" fill="#402B2B"/>
<path d="M100.241 52.907C100.241 52.907 99.5953 57.4301 97.8729 58.7225C96.1506 60.0148 93.1364 61.0917 92.7058 62.1687C92.2752 63.0303 93.1364 64.7534 95.0741 65.3995C97.0118 66.0457 97.2271 66.6919 97.2271 66.6919C97.2271 66.6919 93.3517 67.1227 91.414 64.7534C89.4764 62.3841 91.6293 60.4456 93.567 59.3687C95.5047 58.2917 96.3659 57.8609 97.2271 57.2148C98.3036 56.5686 100.241 52.907 100.241 52.907Z" fill="#D87C60"/>
<path d="M109.496 55.2738C109.496 57.4277 111.003 59.3662 112.941 59.3662C114.879 59.3662 116.386 57.6431 116.386 55.2738C116.386 53.1199 114.879 51.1814 112.941 51.1814C111.003 51.1814 109.496 52.9045 109.496 55.2738Z" fill="#402B2B"/>
<path d="M85.8147 52.4745C85.8147 54.6283 87.3217 56.5668 89.2594 56.5668C91.197 56.5668 92.7041 54.8437 92.7041 52.4745C92.7041 50.3206 91.197 48.3821 89.2594 48.3821C87.3217 48.5975 85.8147 50.3206 85.8147 52.4745Z" fill="#402B2B"/>
<path d="M74.1356 220.68C72.4826 217.993 69.4245 210.513 70.4163 202.083C72.4826 204.976 76.1192 212.745 74.1356 220.68Z" fill="#644545"/>
<path fill-rule="evenodd" clip-rule="evenodd" d="M149.111 210.571C164.828 187.739 166.98 118.6 166.98 118.6C152.519 120.48 145.612 134.795 141.175 143.992C139.007 148.486 137.428 151.758 135.846 151.758L129.186 194.098L62.5833 205.991C62.5275 206.068 62.4726 206.145 62.4184 206.221C59.1376 206.307 47.7527 206.949 40.3174 211.684C40.3174 211.684 36.465 214.571 38.6792 216.595C39.7381 217.752 39.4008 219.004 39.0635 220.256C38.7262 221.508 38.3888 222.759 39.4478 223.916C40.3411 224.891 40.4806 225.901 40.6178 226.894C40.8059 228.255 40.9898 229.586 43.1051 230.756C43.1051 230.756 42.7192 233.838 45.5114 235.092C45.6381 235.149 45.7719 235.209 45.9121 235.272C48.861 236.6 54.6142 239.191 55.7175 238.18C56.1321 237.8 57.1665 237.049 58.3271 236.206C60.4015 234.699 62.8788 232.9 62.9406 232.406C63.0371 231.635 62.8449 230.287 60.3414 230.092C60.3414 230.092 62.7488 229.612 65.2528 227.88C67.853 226.341 70.6464 222.297 70.6464 222.297L73.1799 216.509C134.887 221.769 149.111 210.571 149.111 210.571Z" fill="url(#paint11_linear)"/>
<path d="M131.027 150.263L124.998 181.925L122.294 189.894L70.2234 202.083C71.6698 204.769 74.4386 212.249 73.9427 220.68C85.5139 221.919 117.707 222.043 139.031 217.58C144.759 216.48 151.428 210.761 159.876 189.894C179.037 123.985 163.536 114.293 163.536 114.293C142.007 117.093 131.027 150.263 131.027 150.263Z" fill="url(#paint12_linear)"/>
<path d="M90.3279 551.319L64.9232 549.165L66.215 517.719L91.835 520.088L90.3279 551.319Z" fill="#D88D6C"/>
<path d="M42.967 547.012C42.967 547.012 59.76 539.258 62.5588 533.658C62.5588 533.658 67.5106 515.566 75.0459 525.043C75.0459 525.043 82.7965 531.289 93.7766 526.335L95.0684 560.582L19.0692 560.366C21.0069 555.197 22.7293 549.382 42.967 547.012Z" fill="url(#paint13_linear)"/>
<path d="M95.0685 560.797L95.499 566.182L18.8541 565.967C18.8541 563.813 18.2082 562.736 19.2846 560.582L95.0685 560.797Z" fill="#C73E39"/>
<path d="M201.639 547.012L176.234 551.32L169.56 520.735L194.749 516.427L201.639 547.012Z" fill="#D88D6C"/>
<path d="M152.764 547.012C152.764 547.012 169.557 539.258 172.356 533.657C172.356 533.657 168.481 519.442 177.523 526.55C177.523 526.55 193.025 532.365 199.483 525.257L204.65 560.797L128.651 560.581C131.02 555.197 132.742 549.381 152.764 547.012Z" fill="url(#paint14_linear)"/>
<path d="M204.866 560.797L205.297 566.181L128.652 565.966C128.652 563.812 128.006 562.735 129.083 560.581L204.866 560.797Z" fill="#C73E39"/>
<path d="M60.3049 253.535C60.3049 253.535 56.0993 384.393 60.1899 531.503C60.1899 531.503 72.4617 543.134 95.7136 535.38C95.7136 535.38 95.4983 371.685 101.742 306.638C101.742 306.638 131.022 430.271 168.053 537.319C168.053 537.319 192.812 542.057 201.639 528.057C201.639 528.057 151.69 354.669 144.37 254.944L60.3049 253.535Z" fill="url(#paint15_linear)"/>
<path d="M60.6195 254.944H144.369C145.015 262.482 145.661 270.452 146.737 278.637C96.789 278.852 70.3077 266.144 60.4042 260.329C60.4042 256.667 60.6195 254.944 60.6195 254.944Z" fill="#402B2B" fill-opacity="0.45" style="mix-blend-mode:multiply"/>
<defs>
<linearGradient id="paint0_linear" x1="47.0007" y1="169.358" x2="47.0007" y2="225.997" gradientUnits="userSpaceOnUse">
<stop stop-color="#FFB3B6"/>
<stop offset="1" stop-color="#FFC8C1"/>
</linearGradient>
<linearGradient id="paint1_linear" x1="71.4628" y1="115.92" x2="71.4628" y2="227.499" gradientUnits="userSpaceOnUse">
<stop stop-color="#F4A984"/>
<stop offset="1" stop-color="#EE4D47"/>
</linearGradient>
<linearGradient id="paint2_linear" x1="110.887" y1="38.0578" x2="110.887" y2="256.894" gradientUnits="userSpaceOnUse">
<stop stop-color="#F4A984"/>
<stop offset="1" stop-color="#EE4D47"/>
</linearGradient>
<linearGradient id="paint3_linear" x1="122.947" y1="101.119" x2="101.16" y2="110.516" gradientUnits="userSpaceOnUse">
<stop stop-color="#FFB3B6"/>
<stop offset="1" stop-color="#FFC8C1"/>
</linearGradient>
<linearGradient id="paint4_linear" x1="123.379" y1="90.3125" x2="101.469" y2="99.5913" gradientUnits="userSpaceOnUse">
<stop stop-color="#FFB3B6" stop-opacity="0.31"/>
<stop offset="1" stop-color="#FFC8C1"/>
</linearGradient>
<linearGradient id="paint5_linear" x1="77.4123" y1="84.9467" x2="82.0721" y2="43.3041" gradientUnits="userSpaceOnUse">
<stop stop-color="#FFB3B6"/>
<stop offset="1" stop-color="#FFC8C1"/>
</linearGradient>
<linearGradient id="paint6_linear" x1="66.6572" y1="90.5034" x2="66.6572" y2="217.367" gradientUnits="userSpaceOnUse">
<stop stop-color="#FFB3B6"/>
<stop offset="1" stop-color="#FFC8C1"/>
</linearGradient>
<linearGradient id="paint7_linear" x1="39.8483" y1="147.532" x2="86.2896" y2="215.753" gradientUnits="userSpaceOnUse">
<stop stop-color="#F4A984"/>
<stop offset="0.91698" stop-color="#EE4D47"/>
</linearGradient>
<linearGradient id="paint8_linear" x1="93.5" y1="114" x2="111" y2="84" gradientUnits="userSpaceOnUse">
<stop stop-color="#FFB3B6"/>
<stop offset="1" stop-color="#FFC8C1"/>
</linearGradient>
<linearGradient id="paint9_linear" x1="114.378" y1="-21.7021" x2="114.378" y2="40.9239" gradientUnits="userSpaceOnUse">
<stop stop-color="#F4A984"/>
<stop offset="1" stop-color="#EE4D47"/>
</linearGradient>
<linearGradient id="paint10_linear" x1="116.015" y1="11.1638" x2="116.015" y2="76.27" gradientUnits="userSpaceOnUse">
<stop stop-color="#F4A984"/>
<stop offset="1" stop-color="#EE4D47"/>
</linearGradient>
<linearGradient id="paint11_linear" x1="145.777" y1="178.577" x2="34.1664" y2="215.78" gradientUnits="userSpaceOnUse">
<stop stop-color="#FFB3B6"/>
<stop offset="1" stop-color="#FFC8C1"/>
</linearGradient>
<linearGradient id="paint12_linear" x1="112.995" y1="153.112" x2="160.107" y2="224.399" gradientUnits="userSpaceOnUse">
<stop stop-color="#F4A984"/>
<stop offset="1" stop-color="#EE4D47"/>
</linearGradient>
<linearGradient id="paint13_linear" x1="57.0688" y1="528.914" x2="57.0688" y2="561.63" gradientUnits="userSpaceOnUse">
<stop stop-color="#F4A984"/>
<stop offset="1" stop-color="#EE4D47"/>
</linearGradient>
<linearGradient id="paint14_linear" x1="166.651" y1="517.132" x2="166.651" y2="561.789" gradientUnits="userSpaceOnUse">
<stop stop-color="#F4A984"/>
<stop offset="1" stop-color="#EE4D47"/>
</linearGradient>
<linearGradient id="paint15_linear" x1="130.058" y1="174.86" x2="130.058" y2="538.091" gradientUnits="userSpaceOnUse">
<stop stop-color="#822626"/>
<stop offset="0.943497" stop-color="#402B2B"/>
</linearGradient>
</defs>
</svg>
