<svg width="166" height="82" viewBox="0 0 166 82" fill="none" xmlns="http://www.w3.org/2000/svg">
<path d="M163.158 64.4106C161.475 56.7048 158.698 49.4178 154.996 42.7171C154.491 41.7957 153.902 40.7906 153.313 39.8693C149.022 32.7498 143.721 26.3841 137.579 20.856C136.822 20.1021 135.98 19.4321 135.139 18.762C128.576 13.3177 121.087 8.87844 113.01 5.6956C112 5.2768 110.99 4.94178 109.981 4.60674C101.903 1.75894 93.1526 0.167518 84.1495 0C83.6447 0 83.0557 0 82.5509 0C82.046 0 81.457 0 80.9522 0C71.865 0.167518 63.1985 1.75894 55.121 4.60674C54.1113 4.94178 53.1016 5.36056 52.0919 5.6956C44.0144 8.87844 36.5259 13.3177 29.9629 18.762C29.1215 19.4321 28.2801 20.1859 27.5228 20.856C21.3805 26.3841 15.9955 32.7498 11.7885 39.8693C11.1995 40.7906 10.6947 41.7957 10.1057 42.7171C6.40348 49.4178 3.62686 56.7048 1.94404 64.4106C1.69162 65.4995 1.52332 66.5884 1.2709 67.6772C0.429493 72.3677 0.00878906 77.142 0.00878906 82H165.009C165.009 77.142 164.588 72.284 163.747 67.6772C163.578 66.5884 163.41 65.4995 163.158 64.4106Z" fill="white"/>
</svg>
