<svg width="576" height="480" viewBox="0 0 576 480" fill="none" xmlns="http://www.w3.org/2000/svg">
<path d="M333.97 438.279C393.667 471.303 525.77 419.964 525.769 293.221C525.768 88.0854 338.806 53.0711 229.207 53.0711C32.6646 53.0711 -39.5106 275.139 193.749 293.221C401.664 309.338 206.521 367.772 333.97 438.279Z" fill="#FCDDD4"/>
<path d="M242.568 320.843C241.222 314.64 239 308.775 236.039 303.382C235.635 302.64 235.164 301.831 234.692 301.09C231.259 295.36 227.019 290.236 222.105 285.787C221.499 285.18 220.826 284.64 220.153 284.101C214.902 279.719 208.912 276.146 202.45 273.584C201.642 273.247 200.834 272.978 200.026 272.708C193.564 270.416 186.564 269.135 179.361 269C178.958 269 178.486 269 178.082 269C177.679 269 177.207 269 176.804 269C169.534 269.135 162.601 270.416 156.139 272.708C155.331 272.978 154.523 273.315 153.715 273.584C147.253 276.146 141.262 279.719 136.012 284.101C135.339 284.64 134.666 285.247 134.06 285.787C129.146 290.236 124.838 295.36 121.473 301.09C121.001 301.831 120.598 302.64 120.126 303.382C117.165 308.775 114.943 314.64 113.597 320.843C113.395 321.719 113.26 322.596 113.059 323.472C112.385 327.247 112.049 331.09 112.049 335H244.049C244.049 331.09 243.712 327.18 243.039 323.472C242.905 322.596 242.77 321.719 242.568 320.843Z" fill="#FCDDD4"/>
<path d="M324.155 354.411C322.472 346.705 319.695 339.418 315.993 332.717C315.488 331.796 314.899 330.791 314.31 329.869C310.019 322.75 304.718 316.384 298.576 310.856C297.819 310.102 296.977 309.432 296.136 308.762C289.573 303.318 282.084 298.878 274.007 295.696C272.997 295.277 271.987 294.942 270.978 294.607C262.9 291.759 254.15 290.168 245.147 290C244.642 290 244.053 290 243.548 290C243.043 290 242.454 290 241.949 290C232.862 290.168 224.196 291.759 216.118 294.607C215.108 294.942 214.099 295.361 213.089 295.696C205.011 298.878 197.523 303.318 190.96 308.762C190.119 309.432 189.277 310.186 188.52 310.856C182.378 316.384 176.993 322.75 172.786 329.869C172.197 330.791 171.692 331.796 171.103 332.717C167.401 339.418 164.624 346.705 162.941 354.411C162.689 355.499 162.52 356.588 162.268 357.677C161.427 362.368 161.006 367.142 161.006 372H326.006C326.006 367.142 325.585 362.284 324.744 357.677C324.575 356.588 324.407 355.499 324.155 354.411Z" fill="white"/>
</svg>
