<svg width="159" height="252" viewBox="0 0 159 252" fill="none" xmlns="http://www.w3.org/2000/svg">
<path d="M61.5595 251.549L40.0421 249.724L41.1362 223.09L62.8359 225.096L61.5595 251.549Z" fill="#D88D6C"/>
<path d="M21.4423 247.9C21.4423 247.9 35.6657 241.333 38.0363 236.589C38.0363 236.589 42.2303 221.265 48.6126 229.292C48.6126 229.292 55.1773 234.583 64.4772 230.387L65.5713 259.393L1.20134 259.211C2.8425 254.832 4.30132 249.907 21.4423 247.9Z" fill="url(#paint0_linear)"/>
<path d="M155.834 247.9L134.316 251.549L128.664 225.644L149.999 221.995L155.834 247.9Z" fill="#D88D6C"/>
<path d="M114.44 247.9C114.44 247.9 128.664 241.333 131.034 236.59C131.034 236.59 127.752 224.549 135.411 230.569C135.411 230.569 148.54 235.495 154.01 229.475L158.387 259.576L94.017 259.394C96.0228 254.833 97.4816 249.907 114.44 247.9Z" fill="url(#paint1_linear)"/>
<path d="M36.3941 0.524292C36.3941 0.524292 32.5647 110.165 36.0294 234.765C36.0294 234.765 46.4234 244.616 66.1173 238.049C66.1173 238.049 65.935 99.4017 71.2231 44.3076C71.2231 44.3076 96.0229 149.023 127.387 239.691C127.387 239.691 148.358 243.704 155.834 231.846C155.834 231.846 113.529 84.9897 107.329 0.524292H36.3941Z" fill="url(#paint2_linear)"/>
<path d="M36.3947 0.524292H107.329C107.876 6.90938 108.423 13.6593 109.335 20.5917C67.0296 20.7741 44.6004 10.0107 36.2123 5.08507C36.2123 1.98374 36.3947 0.524292 36.3947 0.524292Z" fill="#402B2B" fill-opacity="0.45" style="mix-blend-mode:multiply"/>
<defs>
<linearGradient id="paint0_linear" x1="33.3863" y1="232.571" x2="33.3863" y2="260.281" gradientUnits="userSpaceOnUse">
<stop stop-color="#F4A984"/>
<stop offset="1" stop-color="#EE4D47"/>
</linearGradient>
<linearGradient id="paint1_linear" x1="126.202" y1="222.593" x2="126.202" y2="260.416" gradientUnits="userSpaceOnUse">
<stop stop-color="#F4A984"/>
<stop offset="1" stop-color="#EE4D47"/>
</linearGradient>
<linearGradient id="paint2_linear" x1="95.2064" y1="-67.306" x2="95.2064" y2="240.345" gradientUnits="userSpaceOnUse">
<stop stop-color="#822626"/>
<stop offset="0.943497" stop-color="#402B2B"/>
</linearGradient>
</defs>
</svg>
