<svg width="133" height="66" viewBox="0 0 133 66" fill="none" xmlns="http://www.w3.org/2000/svg">
<path d="M130.571 51.8427C129.225 45.6404 127.003 39.7753 124.042 34.382C123.638 33.6404 123.166 32.8315 122.695 32.0899C119.262 26.3596 115.022 21.236 110.108 16.7865C109.502 16.1798 108.829 15.6404 108.156 15.1011C102.905 10.7191 96.9146 7.14606 90.4525 4.58426C89.6448 4.24718 88.8371 3.97753 88.0293 3.70787C81.5673 1.41573 74.5668 0.134831 67.3643 0C66.9605 0 66.4893 0 66.0854 0C65.6815 0 65.2103 0 64.8065 0C57.5367 0.134831 50.6035 1.41573 44.1415 3.70787C43.3337 3.97753 42.526 4.3146 41.7183 4.58426C35.2563 7.14606 29.2654 10.7191 24.015 15.1011C23.3419 15.6404 22.6688 16.2472 22.063 16.7865C17.1492 21.236 12.8411 26.3596 9.47552 32.0899C9.00433 32.8315 8.60046 33.6404 8.12927 34.382C5.16751 39.7753 2.94621 45.6404 1.59996 51.8427C1.39802 52.7191 1.26338 53.5955 1.06145 54.4719C0.388321 58.2472 0.0517578 62.0899 0.0517578 66H132.052C132.052 62.0899 131.715 58.1798 131.042 54.4719C130.907 53.5955 130.773 52.7191 130.571 51.8427Z" fill="#FCDDD4"/>
</svg>
