<svg width="287" height="220" viewBox="0 0 287 220" fill="none" xmlns="http://www.w3.org/2000/svg">
<path d="M-35.5479 182.092C-35.5479 202.545 -23.7687 219.07 -9.28176 219.07H16.9843C31.4713 219.07 43.115 202.409 43.115 182.092C43.115 161.639 31.3359 145.114 16.8489 145.114C16.5781 145.114 16.4427 145.114 16.1719 145.114H-9.28176C-23.9041 145.114 -35.5479 161.774 -35.5479 182.092Z" fill="#402B2B"/>
<path d="M170.246 181.685C170.246 202.138 182.025 218.664 196.512 218.664H222.778C237.265 218.664 248.909 202.003 248.909 181.685C248.909 161.232 237.13 144.707 222.643 144.707C222.372 144.707 222.237 144.707 221.966 144.707H196.512C181.89 144.707 170.246 161.232 170.246 181.685Z" fill="#F48767"/>
<path d="M-37.3076 178.57L68.4336 178.3L56.2483 171.12L-23.7684 171.256L-37.3076 178.57Z" fill="#402B2B"/>
<path d="M-137.092 118.295L-136.956 186.156L-51.1178 186.02L-23.7686 171.256L56.2482 171.121L80.8895 185.75L255.545 185.343C258.389 185.343 260.69 183.041 260.69 180.196L260.555 117.482L-137.092 118.295Z" fill="#F36F49"/>
<path d="M50.0214 133.736L187.038 133.465L186.767 9.25616C186.767 4.24446 182.706 0.180908 177.561 0.180908L49.6152 0.451827L50.0214 133.736Z" fill="#F48767"/>
<path d="M-163.628 134.278L49.8857 133.872L49.6149 0.587524L-154.827 0.993862C-159.837 0.993862 -163.898 5.05738 -163.898 10.2045L-163.628 134.278Z" fill="#F06A5B"/>
<path d="M152.917 181.685C152.917 202.138 141.274 218.664 126.787 218.664H100.656V206.202C91.0432 206.202 83.1904 195.23 83.1904 181.685C83.1904 168.14 90.9078 157.169 100.521 157.169V144.707H126.651C141.138 144.843 152.782 161.368 152.917 181.685Z" fill="#F48767"/>
<path d="M78.9951 181.957C78.9951 198.753 88.608 212.298 100.522 212.162C112.437 212.162 121.914 198.617 121.914 181.821C121.914 165.025 112.302 151.48 100.387 151.616C88.608 151.616 78.9951 165.161 78.9951 181.957Z" fill="#F48767"/>
<path d="M100.521 201.867C108.374 201.867 114.602 192.928 114.602 181.821C114.602 170.714 108.238 161.909 100.385 161.909C92.5327 161.909 86.3047 170.849 86.3047 181.956C86.3047 193.063 92.6681 201.867 100.521 201.867ZM100.521 170.036C105.124 170.036 108.915 175.319 108.915 181.821C108.915 188.322 105.124 193.74 100.521 193.74C95.9175 193.74 92.1265 188.458 92.1265 181.956C92.1265 175.319 95.7821 170.036 100.521 170.036Z" fill="#F7A58D"/>
<path d="M100.521 218.799C115.008 218.799 126.652 202.139 126.652 181.821C126.652 161.503 114.873 144.843 100.386 144.843C85.8986 144.843 74.2549 161.503 74.2549 181.821C74.2549 202.139 86.1694 218.934 100.521 218.799ZM100.386 151.615C112.3 151.615 121.913 165.16 121.913 181.821C121.913 198.617 112.436 212.162 100.521 212.162C88.6065 212.162 78.9936 198.617 78.9936 181.956C78.9936 165.16 88.6065 151.615 100.386 151.615Z" fill="#F7A58D"/>
<path d="M96.8662 181.821C96.8662 178.976 98.4909 176.809 100.386 176.809C102.282 176.809 103.907 179.112 104.042 181.821C104.042 184.665 102.417 186.833 100.522 186.833C98.4909 186.968 96.8662 184.665 96.8662 181.821Z" fill="#5B2929"/>
<path d="M277.749 80.504C277.749 81.0458 278.155 81.4521 278.561 81.5876C279.644 81.8585 283.706 81.8585 284.924 81.4521C285.466 81.3167 286.007 80.9103 286.007 80.2331C286.414 69.397 286.414 58.8318 286.007 48.8084C286.007 48.1311 285.466 47.7248 284.924 47.5893C283.57 47.183 278.832 46.9121 277.342 47.4539C276.801 47.5893 276.395 48.1311 276.395 48.673C276.124 58.9672 276.53 69.5324 277.749 80.504Z" fill="#F69276"/>
<path d="M271.116 90.1205C271.251 90.1205 271.386 90.1206 271.657 89.9851L280.864 85.3797C283.03 84.2961 284.384 82.1289 284.384 79.6908L284.249 45.6925C284.249 44.338 283.166 43.2544 281.812 43.2544H256.493C255.816 43.2544 255.41 43.7962 255.41 44.338C255.41 45.0152 255.952 45.4216 256.493 45.4216H281.812C281.947 45.4216 281.947 45.557 281.947 45.557L282.082 79.5553C282.082 81.1808 281.135 82.5353 279.781 83.2125L270.574 87.8179C270.032 88.0888 269.762 88.766 270.032 89.3078C270.303 89.9851 270.709 90.1205 271.116 90.1205Z" fill="#F69276"/>
<path d="M68.4337 133.465C68.4337 133.465 71.9539 133.465 77.3696 133.465H98.897C115.009 133.465 118.8 141.456 128.683 161.097L159.959 160.961C159.959 160.961 159.959 158.659 159.959 154.731L279.375 154.46C279.916 144.572 280.999 124.525 280.999 105.562C280.999 104.884 280.999 104.343 280.999 103.665C280.999 98.2474 280.052 92.2875 278.427 86.3277C272.063 63.03 255.952 38.2425 249.318 29.1672C247.151 26.1873 245.256 23.6137 243.631 21.3111C239.028 15.2158 235.914 12.1004 230.092 12.1004L85.3578 12.5067C82.3791 12.5067 79.6713 14.5385 78.859 17.383C66.4029 63.1655 68.2984 97.9764 68.4337 133.465ZM190.422 28.6254C190.287 27.9482 190.828 27.4064 191.505 27.4064L235.508 27.2709C238.08 27.2709 240.653 28.6254 242.277 30.9281C259.472 54.3612 266.377 75.7624 268.949 88.0885L271.657 101.092C272.063 102.988 270.845 104.478 268.949 104.478H258.254C256.493 104.478 254.598 103.665 253.244 102.311L231.31 81.3159C228.873 79.0133 225.624 77.6588 222.51 77.6588H196.244L190.422 28.6254Z" fill="#F36F49"/>
<path d="M167.675 86.7346C168.623 91.0691 169.706 95.539 170.653 100.28C171.33 103.531 174.174 105.833 177.423 105.969C220.207 107.459 255.68 107.594 280.998 105.698C280.998 105.021 280.998 104.479 280.998 103.802C280.998 98.3835 280.05 92.4236 278.426 86.4637L167.675 86.7346Z" fill="#F6977C"/>
<path d="M88.6058 27.5421L132.608 27.4066C135.181 27.4066 137.482 28.7611 138.701 31.0638C151.022 54.4969 153.594 75.8982 153.594 88.2243V101.228C153.594 103.124 152.105 104.614 150.209 104.614H139.513C137.753 104.614 135.993 103.801 134.91 102.447L117.309 81.4517C115.278 79.149 112.435 77.6591 109.321 77.7945H83.0547L87.2519 28.7611C87.2519 28.0839 87.7934 27.5421 88.6058 27.5421Z" fill="#F36F49"/>
<path d="M68.4337 133.465C68.4337 133.465 71.9539 133.465 77.3696 133.465H98.897C115.009 133.465 118.8 141.456 128.683 161.097L159.959 160.961C159.959 160.961 159.959 158.659 159.959 154.731L279.375 154.46C279.916 144.572 280.999 124.525 280.999 105.562C255.681 107.458 220.073 107.458 177.424 105.833C174.175 105.697 171.332 103.395 170.655 100.144C169.707 95.4029 168.624 90.7976 167.676 86.5986C161.854 61.811 155.491 44.0669 147.097 24.8328C146.42 23.3428 147.503 21.582 149.127 21.582L243.631 21.3111C239.028 15.2158 235.914 12.1004 230.092 12.1004L85.3578 12.5067C82.3791 12.5067 79.6713 14.5385 78.859 17.383C66.4029 63.1655 68.2984 97.9764 68.4337 133.465ZM82.9207 77.7943L87.1178 28.7609C87.1178 28.0836 87.7948 27.5418 88.4718 27.5418L132.474 27.4064C135.047 27.4064 137.348 28.7609 138.567 31.0636C150.888 54.4966 153.46 75.8979 153.46 88.224V101.227C153.46 103.124 151.971 104.614 150.075 104.614H139.379C137.619 104.614 135.859 103.801 134.776 102.446L117.175 81.4514C115.144 79.1487 112.301 77.6588 109.187 77.7943H82.9207Z" fill="#F7A58D"/>
<path d="M73.7132 129.943C73.7132 131.975 75.338 133.465 77.3689 133.465H98.8962C115.008 133.465 118.799 141.457 128.682 161.097L159.958 160.962C159.958 160.962 159.958 158.659 159.958 154.731L159.823 99.8731C159.823 72.6474 154.949 55.4451 142.086 28.2194C140.191 24.1559 135.994 21.5823 131.526 21.5823L84.9508 21.7178C83.8677 21.7178 83.0553 22.395 82.7845 23.3432C73.5779 58.2896 73.5779 115.179 73.7132 129.943ZM82.9199 77.7946L87.1171 28.7612C87.1171 28.084 87.794 27.5422 88.471 27.5422L132.473 27.4067C135.046 27.4067 137.348 28.7613 138.566 31.0639C150.887 54.497 153.459 75.8983 153.459 88.2243V101.228C153.459 103.124 151.97 104.614 150.074 104.614H139.378C137.618 104.614 135.858 103.801 134.775 102.447L117.174 81.4518C115.143 79.1491 112.3 77.6591 109.186 77.7946H82.9199Z" fill="#F58A6B"/>
<path d="M88.8766 29.1675L132.608 29.032C134.504 29.032 136.264 30.1157 137.212 31.7411C149.938 55.9869 151.969 77.5236 151.969 88.0888V101.092C151.969 102.04 151.157 102.853 150.209 102.853H139.513C138.159 102.853 136.941 102.311 136.128 101.363L118.527 80.3681C116.226 77.6591 112.841 76.0336 109.185 76.0336H84.8148L88.8766 29.1675ZM88.6058 27.5421C87.9288 27.5421 87.2519 28.0839 87.2519 28.7611L83.0547 77.7945H109.321C112.435 77.7945 115.278 79.149 117.309 81.4517L134.91 102.447C135.993 103.801 137.753 104.614 139.513 104.614H150.209C152.105 104.614 153.594 103.124 153.594 101.228V88.2243C153.594 75.8982 151.022 54.4969 138.701 31.0638C137.482 28.7611 135.181 27.4066 132.608 27.4066L88.6058 27.5421Z" fill="#F7A58D"/>
<path d="M159.824 128.859V154.731L207.076 154.595C206.535 147.823 205.316 141.321 203.285 135.226C202.473 132.788 200.442 131.027 197.869 130.62C187.444 129.401 174.176 128.859 159.824 128.859ZM255.411 154.595H278.834C279.24 148.906 279.646 139.696 280.052 129.266C274.366 129.537 269.086 130.078 264.347 130.756C261.775 131.162 259.744 132.923 258.931 135.361C257.036 141.321 255.953 147.823 255.411 154.595Z" fill="#F6977C"/>
<path d="M159.959 180.738L269.491 180.467C276.938 180.467 283.03 174.371 283.03 166.921V164.619C283.03 162.452 281.27 160.826 279.239 160.826L160.094 161.097L159.959 180.738Z" fill="#F6977C"/>
<path d="M139.785 180.738H159.959V161.097H128.954L132.339 174.778C133.151 178.299 136.265 180.738 139.785 180.738Z" fill="#F7A58D"/>
<path d="M91.5853 109.084C96.1887 109.22 105.125 110.168 105.125 113.419C105.125 116.669 97.2718 117.753 90.9084 117.753C84.5449 117.753 83.8679 114.231 83.3264 112.741C82.9202 111.251 82.514 108.949 91.5853 109.084Z" fill="#F6977C"/>
<path d="M91.9915 112.606C89.8252 112.606 87.5236 111.928 86.4404 110.845C87.2528 110.438 88.4713 110.032 90.3668 110.032C93.887 110.032 99.5735 110.438 102.552 111.793C102.146 112.064 101.063 112.606 99.3027 112.606C97.1364 112.606 94.2932 112.606 91.9915 112.606Z" fill="#F47B58"/>
<path d="M101.063 115.179C101.876 115.179 102.282 115.315 102.417 115.45C99.9802 116.534 95.5122 116.94 93.3459 116.94C90.2319 116.94 88.0656 116.94 87.3887 116.263C87.9302 115.857 89.1488 115.179 90.3673 115.179C91.992 115.315 99.9802 115.179 101.063 115.179Z" fill="#F47B58"/>
<path d="M159.959 154.866C159.959 158.794 159.959 161.097 159.959 161.097L278.969 160.826C278.969 160.826 279.104 158.523 279.375 154.595L159.959 154.866Z" fill="#F58A6B"/>
<g opacity="0.2">
<path d="M211.273 127.505V153.376L251.214 153.24V127.369C251.214 124.254 248.371 121.816 244.851 121.816H217.501C214.117 121.951 211.273 124.525 211.273 127.505Z" fill="#F16036"/>
</g>
<path d="M264.617 152.428H273.012C275.178 152.428 277.073 150.667 277.073 148.364V144.166C277.073 141.998 275.313 140.102 273.012 140.102H264.617C262.451 140.102 260.556 141.863 260.556 144.166V148.364C260.556 150.667 262.451 152.428 264.617 152.428Z" fill="white"/>
<path d="M185.14 152.699H193.534C195.7 152.699 197.596 150.938 197.596 148.636V144.437C197.596 142.27 195.836 140.373 193.534 140.373H185.14C182.974 140.373 181.078 142.134 181.078 144.437V148.636C181.078 150.803 182.838 152.699 185.14 152.699Z" fill="white"/>
<path d="M130.984 80.7749C130.984 81.3167 131.39 81.7231 131.797 81.8585C137.077 82.4003 142.628 82.4003 148.315 81.7231C148.992 81.5876 149.398 81.1813 149.398 80.504C149.804 69.6679 149.804 59.1027 149.398 49.0793C149.398 48.4021 148.856 47.9957 148.315 47.8603C142.493 47.183 136.671 47.183 130.578 47.8603C130.037 47.9957 129.63 48.5375 129.63 49.0793C129.224 59.2382 129.766 69.8033 130.984 80.7749Z" fill="#F7A58D"/>
<path d="M151.969 90.3919C152.375 90.3919 152.781 90.121 152.917 89.7147C153.187 89.1729 152.917 88.4956 152.375 88.2247L143.168 83.7548C141.814 83.0776 140.867 81.5876 140.867 80.0976L140.731 46.0993C140.731 45.9638 140.867 45.9639 140.867 45.9639H146.553C147.23 45.9639 147.636 45.422 147.636 44.8802C147.636 44.203 147.095 43.7966 146.553 43.7966H140.867C139.513 43.7966 138.43 44.8802 138.43 46.2347L138.565 80.2331C138.565 82.6712 139.919 84.8384 142.085 85.922L151.292 90.3919C151.698 90.3919 151.834 90.3919 151.969 90.3919Z" fill="#F69276"/>
<path d="M214.065 182.341L252.381 182.258L252.356 170.745L214.04 170.828L214.065 182.341Z" fill="#F8B4A0"/>
<path opacity="0.6" d="M146.836 25.2426C155.23 44.4767 161.458 62.2208 167.415 87.0084L278.166 86.7375C271.803 63.4399 255.691 38.6523 249.057 29.577C246.891 26.5971 244.995 24.0236 243.37 21.7209L148.867 21.9918C147.242 22.1273 146.159 23.7527 146.836 25.2426Z" fill="url(#paint0_linear)"/>
<defs>
<linearGradient id="paint0_linear" x1="198.5" y1="0.999999" x2="251.5" y2="128" gradientUnits="userSpaceOnUse">
<stop stop-color="#F7A58D"/>
<stop offset="0.926161" stop-color="white"/>
</linearGradient>
</defs>
</svg>
