<svg width="181" height="166" viewBox="0 0 181 166" fill="none" xmlns="http://www.w3.org/2000/svg">
<path d="M179.911 81.4285H71.4824V165.155H179.911V81.4285Z" fill="#8C5E5E"/>
<path d="M180.087 81.4285H140.61V165.155H180.087V81.4285Z" fill="#694646"/>
<path d="M166.577 81.4285H156.4V93.0134H166.577V81.4285Z" fill="#A3774A"/>
<path d="M108.327 81.4285H98.1514V93.0134H108.327V81.4285Z" fill="#A3774A"/>
<path d="M108.806 81.4285H0.376953V165.155H108.806V81.4285Z" fill="#F7A58D"/>
<path d="M108.98 81.4285H69.5039V165.155H108.98V81.4285Z" fill="#F58A6B"/>
<path d="M95.4713 81.4285H85.2949V93.0134H95.4713V81.4285Z" fill="white"/>
<path d="M37.22 81.4285H27.0439V93.0134H37.22V81.4285Z" fill="white"/>
<path d="M136.458 0.153687H28.0293V83.8806H136.458V0.153687Z" fill="#F7A58D"/>
<path d="M136.633 0.153687H97.1562V83.8806H136.633V0.153687Z" fill="#F58A6B"/>
<path d="M123.124 0.153687H112.947V11.7386H123.124V0.153687Z" fill="white"/>
<path d="M64.8724 0.153687H54.6963V11.7386H64.8724V0.153687Z" fill="white"/>
</svg>
