<svg width="95" height="162" viewBox="0 0 95 162" fill="none" xmlns="http://www.w3.org/2000/svg">
<path d="M80.4296 48.0293C69.4605 48.0293 65.347 38.4271 65.347 25.0527C65.347 11.6782 61.5763 0.704328 46.8366 0.0184584C27.6406 -0.667411 29.3546 17.851 29.3546 40.4847C29.3546 69.2913 19.071 50.7728 4.6741 66.8908C-7.66615 80.6082 8.10203 104.957 12.901 112.158H74.9449C77.0016 108.386 82.1434 99.1266 87.9707 87.8097C100.997 63.8043 91.3987 48.0293 80.4296 48.0293Z" fill="#F37753"/>
<path opacity="0.2" fill-rule="evenodd" clip-rule="evenodd" d="M50.9497 52.4874H47.8648V95.4952L34.9056 78.2086L32.4375 80.0605L47.8648 100.639V112.158H50.9497V79.6638L64.0221 63.4436L61.6205 61.5063L50.9497 74.7467V52.4874Z" fill="white"/>
<rect x="0.0566406" y="112" width="90" height="50" fill="#FCDDD4"/>
</svg>
